<svg xmlns="http://www.w3.org/2000/svg" width="96" height="96" viewBox="0 0 96 96">
    <path fill="#FFF" fill-rule="nonzero" d="M52.8 0v14.58c16.272 2.358 28.8 16.313 28.8 33.3 0 4.33-.864 8.42-2.304 12.222l12.48 7.363A47.625 47.625 0 0 0 96 47.88C96 22.953 77.04 2.406 52.8 0zM48 81.564c-18.576 0-33.6-15.062-33.6-33.684 0-16.987 12.528-30.942 28.8-33.3V0C18.912 2.406 0 22.905 0 47.88 0 74.442 21.456 96 47.952 96c15.888 0 29.952-7.747 38.688-19.681l-12.48-7.363c-6.144 7.7-15.552 12.608-26.16 12.608z"/>
</svg>
