<svg xmlns="http://www.w3.org/2000/svg" xmlns:xlink="http://www.w3.org/1999/xlink" width="90" height="24" viewBox="0 0 90 24">
    <defs>
        <linearGradient id="b" x1="50%" x2="50%" y1="0%" y2="100%">
            <stop offset="0%" stop-color="#EB2B4F"/>
            <stop offset="100%" stop-color="#B62A8B"/>
        </linearGradient>
        <path id="a" d="M10.398.262a.774.774 0 0 1 .543-.22c.197 0 .394.073.544.22.3.296.3.773 0 1.068L2.657 9.982h.895l6.507-6.516a.779.779 0 0 1 1.087-.01c.303.291.308.77.01 1.067L5.707 9.982h.862l3.87-3.83a.779.779 0 0 1 1.086-.005.745.745 0 0 1 .004 1.067L8.733 9.982h6.523c.308 0 .587.18.707.46.12.278.06.6-.154.818L3.543 23.755a.774.774 0 0 1-1.087.02.745.745 0 0 1-.02-1.067l11.011-11.217h-.9L3.7 20.178a.773.773 0 0 1-.543.221.774.774 0 0 1-.544-.22.745.745 0 0 1 0-1.068l7.76-7.62h-.885l-5.64 5.565a.773.773 0 0 1-.545.223.774.774 0 0 1-.542-.22.745.745 0 0 1-.003-1.067l4.561-4.5H.8a.769.769 0 0 1-.71-.467.745.745 0 0 1 .167-.823L10.398.262z"/>
        <linearGradient id="c" x1="50%" x2="50%" y1=".811%" y2="100%">
            <stop offset="0%" stop-color="#6F2A82" stop-opacity="0"/>
            <stop offset="100%" stop-color="#6F2A82"/>
        </linearGradient>
        <linearGradient id="e" x1="44.293%" x2="44.293%" y1="100%" y2="0%">
            <stop offset="0%" stop-color="#6F2A82" stop-opacity="0"/>
            <stop offset="100%" stop-color="#6F2A82"/>
        </linearGradient>
        <linearGradient id="f" x1="50%" x2="50%" y1="100%" y2="0%">
            <stop offset="0%" stop-color="#6F2A82" stop-opacity="0"/>
            <stop offset="100%" stop-color="#6F2A82"/>
        </linearGradient>
    </defs>
    <g fill="none" fill-rule="evenodd">
        <g fill="#282A3C">
            <path d="M23.558 14.387a.765.765 0 0 1 .455-1.39c.228 0 .375.067.483.146.777.616 1.608.963 2.627.963 1.018 0 1.661-.481 1.661-1.176v-.027c0-.669-.375-1.03-2.117-1.43-1.997-.482-3.123-1.07-3.123-2.795V8.65c0-1.605 1.34-2.715 3.203-2.715 1.18 0 2.131.308 2.975.87a.743.743 0 0 1 .362.655.765.765 0 0 1-.777.762.797.797 0 0 1-.429-.12c-.724-.469-1.42-.71-2.158-.71-.965 0-1.527.496-1.527 1.11v.027c0 .723.428 1.043 2.237 1.471 1.984.482 3.002 1.19 3.002 2.741v.027c0 1.752-1.38 2.795-3.35 2.795a5.85 5.85 0 0 1-3.524-1.177M36.491 7.594h-2.278a.763.763 0 1 1 0-1.524h6.232a.76.76 0 0 1 .75.762.76.76 0 0 1-.75.762h-2.292v7.087a.823.823 0 0 1-.83.816.823.823 0 0 1-.832-.816V7.594zM48.943 10.71c1.18 0 1.93-.615 1.93-1.564v-.027c0-1.003-.724-1.551-1.944-1.551H46.53v3.142h2.413zm-4.061-3.811c0-.468.362-.829.83-.829h3.351c1.18 0 2.104.348 2.707.936.496.508.778 1.204.778 2.02v.026c0 1.498-.872 2.407-2.131 2.794l1.796 2.26c.16.2.268.375.268.629 0 .454-.39.762-.791.762-.375 0-.617-.174-.804-.428l-2.279-2.901H46.53v2.513a.811.811 0 0 1-.817.816.814.814 0 0 1-.831-.816V6.9zM56.583 14.601V6.899c0-.468.362-.829.83-.829h5.455c.402 0 .737.334.737.735a.734.734 0 0 1-.737.736H58.23v2.434h4.034c.402 0 .737.334.737.748a.731.731 0 0 1-.737.722H58.23v2.514h4.704c.402 0 .737.334.737.736a.734.734 0 0 1-.737.735h-5.521a.817.817 0 0 1-.831-.829M73.175 11.713l-1.648-3.784-1.649 3.784h3.297zm-6.138 2.647l3.485-7.755c.187-.415.522-.669.991-.669h.08c.47 0 .791.254.98.669l3.484 7.755a.771.771 0 0 1-.684 1.137c-.389 0-.657-.227-.804-.575l-.764-1.751h-4.556l-.79 1.805a.793.793 0 0 1-.765.521.754.754 0 0 1-.764-.762c0-.12.04-.241.107-.375zM79.944 6.846c0-.455.362-.83.831-.83h.174c.362 0 .603.188.765.442l2.84 4.44 2.855-4.454c.174-.28.415-.427.75-.427h.175c.469 0 .83.374.83.829v7.835a.815.815 0 0 1-.83.816.829.829 0 0 1-.818-.816V9.065l-2.291 3.437c-.175.267-.389.428-.698.428-.294 0-.509-.16-.683-.428l-2.278-3.41v5.602a.8.8 0 0 1-.817.803.79.79 0 0 1-.805-.803V6.846z"/>
        </g>
        <g>
            <mask id="d" fill="#fff">
                <use xlink:href="#a"/>
            </mask>
            <use fill="url(#b)" xlink:href="#a"/>
            <path fill="url(#c)" d="M4.412 9.119l-.86.863h2.154l.862-.863z" mask="url(#d)"/>
            <path d="M9.314 10.305l-.86.863h2.154l.862-.863z" mask="url(#d)"/>
            <path fill="url(#c)" d="M7.452 9.119l-.884.863H8.73l.876-.863z" mask="url(#d)"/>
            <path fill="url(#e)" d="M9.512 12.354h2.157l.878-.863h-2.172z" mask="url(#d)"/>
            <path fill="url(#f)" d="M7.32 11.491l-.869.863h2.153l.884-.863z" mask="url(#d)"/>
        </g>
    </g>
</svg>
