<?xml version="1.0" encoding="UTF-8"?>
<svg width="1200px" height="323px" viewBox="0 0 1200 323" version="1.1" xmlns="http://www.w3.org/2000/svg" xmlns:xlink="http://www.w3.org/1999/xlink">
    <!-- Generator: Sketch 48.1 (47250) - http://www.bohemiancoding.com/sketch -->
    <title>Stream - WhitePNG</title>
    <desc>Created with Sketch.</desc>
    <defs>
        <linearGradient x1="50%" y1="0%" x2="50%" y2="100%" id="linearGradient-1">
            <stop stop-color="#EB2B4F" offset="0%"></stop>
            <stop stop-color="#B62A8B" offset="100%"></stop>
        </linearGradient>
        <path d="M139.665668,3.5233672 C141.680891,1.54426705 144.319676,0.554716981 146.960526,0.554716981 C149.603441,0.554716981 152.248421,1.54833091 154.263644,3.53555878 C158.294089,7.50798258 158.287895,13.9390421 154.251255,17.9033382 L35.7041296,134.371553 L47.717004,134.371553 L135.121093,46.6551524 C139.116437,42.6502177 145.651457,42.5851959 149.723198,46.5169811 C153.794939,50.4447025 153.856883,56.8777939 149.865668,60.8827286 L76.6404049,134.371553 L88.2217409,134.371553 L140.188057,82.803193 C144.204049,78.8206096 150.739069,78.7941945 154.786032,82.746299 C158.835061,86.6963716 158.863968,93.129463 154.847976,97.1140784 L117.302065,134.371553 L123.149514,134.371553 L164.248907,134.371553 L204.912632,134.371553 C209.054575,134.371553 212.793887,136.803774 214.414737,140.556749 C216.033522,144.30566 215.22,148.645864 212.343765,151.579971 L47.5827935,319.785196 C45.5551822,321.851669 42.8544534,322.894049 40.1475304,322.894049 C37.5706883,322.894049 34.9876518,321.949202 32.9868826,320.049347 C28.8821053,316.156168 28.7602834,309.725109 32.7184615,305.685631 L180.620526,154.688824 L168.527126,154.688824 L49.6971255,271.630479 C47.6839676,273.613643 45.0389879,274.605225 42.3981377,274.605225 C39.7572874,274.605225 37.1143725,273.613643 35.0991498,271.630479 C31.0666397,267.662119 31.0666397,261.229028 35.0991498,257.260668 L139.32498,154.688824 L127.440121,154.688824 L51.6834413,229.606096 C49.6661538,231.603483 47.0149798,232.599129 44.3638057,232.599129 C41.7312146,232.599129 39.0965587,231.613643 37.081336,229.642671 C33.0405668,225.682438 33.0240486,219.249347 37.0462348,215.272859 L98.3102429,154.688824 L92.5247368,154.688824 L52.0551012,154.688824 L10.7492308,154.688824 C6.57012146,154.688824 2.80809717,152.211901 1.20995951,148.414224 C-0.38611336,144.614514 0.499676113,140.243832 3.45643725,137.340203 L139.665668,3.5233672 Z" id="path-2"></path>
        <linearGradient x1="50%" y1="0.81114477%" x2="50%" y2="100%" id="linearGradient-4">
            <stop stop-color="#6F2A82" stop-opacity="0" offset="0%"></stop>
            <stop stop-color="#6F2A82" offset="100%"></stop>
        </linearGradient>
        <linearGradient x1="44.2934901%" y1="100%" x2="44.2934912%" y2="0%" id="linearGradient-5">
            <stop stop-color="#6F2A82" stop-opacity="0" offset="0%"></stop>
            <stop stop-color="#6F2A82" offset="100%"></stop>
        </linearGradient>
        <linearGradient x1="50%" y1="100%" x2="50%" y2="0%" id="linearGradient-6">
            <stop stop-color="#6F2A82" stop-opacity="0" offset="0%"></stop>
            <stop stop-color="#6F2A82" offset="100%"></stop>
        </linearGradient>
    </defs>
    <g id="Page-1" stroke="none" stroke-width="1" fill="none" fill-rule="evenodd">
        <g id="Stream---WhitePNG">
            <g id="Group">
                <path d="M316.420263,193.671437 C313.899413,191.873259 312.101235,188.81253 312.101235,185.211923 C312.101235,179.451802 316.781599,174.954231 322.53747,174.954231 C325.598198,174.954231 327.57917,175.855445 329.020263,176.930951 C339.460749,185.211923 350.619656,189.892287 364.303664,189.892287 C377.97917,189.892287 386.621478,183.413745 386.621478,174.053016 L386.621478,173.69168 C386.621478,164.692287 381.579777,159.833381 358.182206,154.434595 C331.362571,147.951802 316.241721,140.032166 316.241721,116.813138 L316.241721,116.451802 C316.241721,94.8524089 334.240506,79.9143522 359.261964,79.9143522 C375.101235,79.9143522 387.884028,84.050587 399.221478,91.6131377 C401.738077,93.0542308 404.080385,96.1107085 404.080385,100.433988 C404.080385,106.194109 399.404271,110.69168 393.639899,110.69168 C391.480385,110.69168 389.677955,110.151802 387.884028,109.072045 C378.157713,102.772045 368.801235,99.5327733 358.900628,99.5327733 C345.939291,99.5327733 338.380992,106.194109 338.380992,114.475081 L338.380992,114.832166 C338.380992,124.554231 344.141113,128.873259 368.439899,134.633381 C395.080992,141.111923 408.760749,150.651194 408.760749,171.532166 L408.760749,171.893502 C408.760749,195.473866 390.217834,209.51496 363.763785,209.51496 C346.661964,209.51496 330.461356,204.111923 316.420263,193.671437" id="Fill-1" fill="#FFFFFF"></path>
                <path d="M490.142976,102.233016 L459.54419,102.233016 C453.779818,102.233016 449.282247,97.5526518 449.282247,91.9710729 C449.282247,86.3937449 453.779818,81.7133806 459.54419,81.7133806 L543.242368,81.7133806 C548.823947,81.7133806 553.321518,86.3937449 553.321518,91.9710729 C553.321518,97.5526518 548.823947,102.233016 543.242368,102.233016 L512.460789,102.233016 L512.460789,197.62998 C512.460789,203.751437 507.419089,208.610344 501.301883,208.610344 C495.184676,208.610344 490.142976,203.751437 490.142976,197.62998 L490.142976,102.233016 Z" id="Fill-3" fill="#FFFFFF"></path>
                <path d="M657.385445,144.172652 C673.228968,144.172652 683.308117,135.89168 683.308117,123.113138 L683.308117,122.751802 C683.308117,109.254838 673.586053,101.87083 657.206903,101.87083 L624.984231,101.87083 L624.984231,144.172652 L657.385445,144.172652 Z M602.84496,92.8714372 C602.84496,86.5714372 607.703866,81.7125304 614.003866,81.7125304 L659.005081,81.7125304 C674.844352,81.7125304 687.26581,86.3928947 695.368239,94.3125304 C702.025324,101.152409 705.808725,110.513138 705.808725,121.493502 L705.808725,121.854838 C705.808725,142.013138 694.105688,154.256053 677.18666,159.472045 L701.306903,189.892287 C703.466417,192.59168 704.90751,194.933988 704.90751,198.356053 C704.90751,204.473259 699.683016,208.613745 694.288482,208.613745 C689.246781,208.613745 686.003259,206.271437 683.48666,202.853623 L652.883623,163.795324 L624.984231,163.795324 L624.984231,197.633381 C624.984231,203.750587 620.125324,208.613745 614.003866,208.613745 C607.703866,208.613745 602.84496,203.750587 602.84496,197.633381 L602.84496,92.8714372 Z" id="Fill-5" fill="#FFFFFF"></path>
                <path d="M760.007429,196.552348 L760.007429,92.8701619 C760.007429,86.5701619 764.866336,81.7112551 771.166336,81.7112551 L844.424028,81.7112551 C849.827065,81.7112551 854.324636,86.2130769 854.324636,91.6118623 C854.324636,97.1934413 849.827065,101.51247 844.424028,101.51247 L782.1467,101.51247 L782.1467,134.27502 L836.32585,134.27502 C841.728887,134.27502 846.226457,138.772591 846.226457,144.35417 C846.226457,149.752955 841.728887,154.071984 836.32585,154.071984 L782.1467,154.071984 L782.1467,187.914291 L845.325243,187.914291 C850.728279,187.914291 855.22585,192.411862 855.22585,197.810648 C855.22585,203.392227 850.728279,207.711255 845.325243,207.711255 L771.166336,207.711255 C764.866336,207.711255 760.007429,202.852348 760.007429,196.552348" id="Fill-7" fill="#FFFFFF"></path>
                <path d="M982.874393,157.673016 L960.73087,106.733138 L938.591599,157.673016 L982.874393,157.673016 Z M900.430263,193.309251 L947.229656,88.9128947 C949.750506,83.3313158 954.252328,79.913502 960.552328,79.913502 L961.632085,79.913502 C967.932085,79.913502 972.251113,83.3313158 974.771964,88.9128947 L1021.57561,193.309251 C1022.47257,194.933138 1022.82966,196.552773 1022.82966,197.993866 C1022.82966,203.93253 1018.33209,208.612895 1012.39342,208.612895 C1007.17318,208.612895 1003.57257,205.552166 1001.5916,200.876053 L991.329656,177.295688 L930.132085,177.295688 L919.513057,201.594474 C917.710628,206.092045 913.931478,208.612895 909.255364,208.612895 C903.490992,208.612895 898.993421,204.111073 898.993421,198.355202 C898.993421,196.731316 899.5333,195.11168 900.430263,193.309251 Z" id="Fill-9" fill="#FFFFFF"></path>
                <path d="M1073.79377,92.1538664 C1073.79377,86.0324089 1078.65692,80.9949595 1084.95692,80.9949595 L1087.29498,80.9949595 C1092.15389,80.9949595 1095.39316,83.5115587 1097.55692,86.9336235 L1135.71401,146.694352 L1174.05814,86.75083 C1176.39619,82.9716802 1179.63547,80.9949595 1184.13729,80.9949595 L1186.47534,80.9949595 C1192.77534,80.9949595 1197.6385,86.0324089 1197.6385,92.1538664 L1197.6385,197.62998 C1197.6385,203.751437 1192.77534,208.614595 1186.47534,208.614595 C1180.53243,208.614595 1175.49498,203.572895 1175.49498,197.62998 L1175.49498,122.034231 L1144.71765,168.293745 C1142.37534,171.894352 1139.49741,174.053866 1135.35267,174.053866 C1131.39498,174.053866 1128.51704,171.894352 1126.17474,168.293745 L1095.57595,122.391316 L1095.57595,197.808522 C1095.57595,203.934231 1090.71279,208.614595 1084.59559,208.614595 C1078.47838,208.614595 1073.79377,203.934231 1073.79377,197.808522 L1073.79377,92.1538664 Z" id="Fill-11" fill="#FFFFFF"></path>
                <g id="Mark">
                    <mask id="mask-3" fill="white">
                        <use xlink:href="#path-2"></use>
                    </mask>
                    <use id="Clip-17" fill="url(#linearGradient-1)" xlink:href="#path-2"></use>
                    <polygon id="Fill-19" fill="url(#linearGradient-4)" mask="url(#mask-3)" points="59.2632389 122.752975 47.717004 134.371553 76.6404049 134.371553 88.2217409 122.752975"></polygon>
                    <polygon id="Page-1" mask="url(#mask-3)" points="125.108988 138.725187 113.562753 150.343765 142.484089 150.343765 154.06749 138.725187"></polygon>
                    <polygon id="Fill-21" fill="url(#linearGradient-4)" mask="url(#mask-3)" points="100.09834 122.752975 88.2217409 134.371553 117.246316 134.371553 129.011417 122.752975"></polygon>
                    <polygon id="Fill-23" fill="url(#linearGradient-5)" mask="url(#mask-3)" points="127.768421 166.30537 156.728988 166.30537 168.527126 154.688824 139.353887 154.688824"></polygon>
                    <polygon id="Fill-25" fill="url(#linearGradient-6)" mask="url(#mask-3)" points="98.3102429 154.688824 86.6525101 166.30537 115.563522 166.30537 127.440121 154.688824"></polygon>
                </g>
            </g>
        </g>
    </g>
</svg>