<svg xmlns="http://www.w3.org/2000/svg" xmlns:xlink="http://www.w3.org/1999/xlink" width="109" height="120" viewBox="0 0 109 120">
    <defs>
        <linearGradient id="b" x1="50%" x2="50%" y1="0%" y2="100%">
            <stop offset="0%" stop-color="#EB2B4F"/>
            <stop offset="100%" stop-color="#B62A8B"/>
        </linearGradient>
        <path id="a" d="M37.103.161c-.668 0-1.336.256-1.845.766L.768 35.437a2.624 2.624 0 0 0-.57 2.856 2.613 2.613 0 0 0 2.416 1.618h22.172L9.273 55.535a2.624 2.624 0 0 0 .009 3.706c.51.509 1.177.763 1.844.763.671 0 1.342-.258 1.853-.772l19.183-19.32h3.01L9.448 66.134a2.625 2.625 0 0 0 0 3.706c.51.511 1.18.768 1.848.768.669 0 1.339-.257 1.848-.768l29.42-29.93h3.063L9.238 77.832a2.624 2.624 0 0 0 .067 3.705 2.6 2.6 0 0 0 1.766.734h.095a2.605 2.605 0 0 0 1.836-.802L53.66 39.11a2.624 2.624 0 0 0 .523-2.843 2.614 2.614 0 0 0-2.405-1.596H29.595l9.357-9.459a2.624 2.624 0 0 0-.015-3.705 2.61 2.61 0 0 0-3.697.015l-13.009 13.15h-2.933l19.6-20.028a2.624 2.624 0 0 0-.036-3.705 2.61 2.61 0 0 0-3.697.036l-23.19 23.696H8.933L38.951 4.635A2.625 2.625 0 0 0 38.954.93 2.604 2.604 0 0 0 37.103.16z"/>
        <linearGradient id="c" x1="50%" x2="50%" y1=".811%" y2="100%">
            <stop offset="0%" stop-color="#6F2A82" stop-opacity="0"/>
            <stop offset="100%" stop-color="#6F2A82"/>
        </linearGradient>
        <linearGradient id="d" x1="50%" x2="50%" y1="100%" y2=".811%">
            <stop offset="0%" stop-color="#6F2A82" stop-opacity="0"/>
            <stop offset="100%" stop-color="#6F2A82"/>
        </linearGradient>
    </defs>
    <g fill="none" fill-rule="evenodd">
        <g fill="#FFF">
            <path d="M.531 117.524c-.31-.222-.53-.6-.53-1.043 0-.71.574-1.265 1.283-1.265.376 0 .62.111.797.244 1.284 1.02 2.656 1.597 4.339 1.597 1.682 0 2.745-.798 2.745-1.952v-.044c0-1.11-.62-1.709-3.497-2.375-3.3-.799-5.159-1.774-5.159-4.637v-.044c0-2.663 2.214-4.505 5.291-4.505 1.948 0 3.52.51 4.915 1.443.31.177.598.555.598 1.087 0 .71-.576 1.264-1.285 1.264-.265 0-.487-.066-.708-.199-1.196-.777-2.346-1.176-3.564-1.176-1.594 0-2.524.82-2.524 1.842v.044c0 1.198.709 1.73 3.697 2.44 3.277.8 4.96 1.976 4.96 4.55v.044c0 2.906-2.281 4.637-5.536 4.637-2.102 0-4.095-.665-5.822-1.952M21.897 106.252h-3.763a1.263 1.263 0 0 1-1.262-1.265c0-.688.553-1.265 1.262-1.265h10.294c.686 0 1.24.577 1.24 1.265s-.554 1.265-1.24 1.265h-3.786v11.76c0 .754-.62 1.353-1.373 1.353a1.362 1.362 0 0 1-1.372-1.353v-11.76zM42.466 111.422c1.949 0 3.188-1.021 3.188-2.596v-.045c0-1.664-1.195-2.574-3.21-2.574h-3.963v5.215h3.985zm-6.708-6.324c0-.777.598-1.376 1.373-1.376h5.534c1.948 0 3.476.577 4.473 1.554.818.843 1.284 1.997 1.284 3.35v.044c0 2.486-1.44 3.994-3.52 4.638l2.966 3.75c.266.333.443.62.443 1.042 0 .755-.642 1.265-1.306 1.265-.62 0-1.019-.288-1.329-.71l-3.764-4.815h-3.43v4.172c0 .754-.599 1.353-1.351 1.353a1.348 1.348 0 0 1-1.373-1.353v-12.914zM55.088 117.878v-12.78c0-.776.597-1.376 1.372-1.376h9.01a1.23 1.23 0 0 1 1.218 1.22c0 .688-.554 1.221-1.218 1.221h-7.66v4.039h6.664c.664 0 1.218.554 1.218 1.242 0 .665-.554 1.198-1.218 1.198H57.81v4.172h7.771a1.23 1.23 0 0 1 1.218 1.22c0 .688-.554 1.22-1.218 1.22H56.46c-.775 0-1.372-.599-1.372-1.376M82.498 113.086l-2.723-6.28-2.723 6.28h5.446zm-10.14 4.393l5.756-12.869c.31-.688.864-1.11 1.639-1.11h.132c.775 0 1.306.422 1.616 1.11l5.757 12.87c.11.199.154.399.154.576 0 .732-.553 1.31-1.283 1.31-.643 0-1.085-.378-1.329-.955l-1.262-2.907H76.01l-1.306 2.996c-.221.555-.686.865-1.261.865a1.249 1.249 0 0 1-1.262-1.265c0-.2.066-.398.176-.62zM93.68 105.01c0-.755.598-1.376 1.373-1.376h.288c.597 0 .996.31 1.262.732l4.693 7.366 4.716-7.389c.287-.465.686-.71 1.24-.71h.287c.775 0 1.373.622 1.373 1.376v13.003c0 .754-.598 1.353-1.373 1.353-.731 0-1.35-.621-1.35-1.353v-9.32l-3.786 5.703c-.288.444-.642.71-1.152.71-.487 0-.84-.266-1.129-.71l-3.763-5.658v9.297c0 .754-.598 1.331-1.35 1.331a1.307 1.307 0 0 1-1.329-1.331v-13.025z"/>
        </g>
        <use fill="url(#b)" transform="translate(27.187 .363)" xlink:href="#a"/>
        <path fill="url(#c)" d="M7.796 3.23H.473L3.396.234h7.333zM18.078 3.23H10.73L13.736.234h7.321z" transform="translate(38.69 31.804)"/>
        <path fill="url(#d)" d="M23.676 8.47h7.387l-2.987 2.996h-7.333zM13.284 8.47h7.376l-3.008 2.996h-7.32z" transform="translate(38.69 31.804)"/>
    </g>
</svg>
